<?xml version="1.0" encoding="UTF-8"?> <svg xmlns="http://www.w3.org/2000/svg" viewBox="0 0 43 56"><title>logo-red</title><path d="M41.68,2.8c-.56-1.36-1.25-2.5-2-2.76,0,0-1.25-.71-4.72,3.72L24,18.92a1.53,1.53,0,0,0-.29.85l-.15,2L23.38,24a1,1,0,0,1-.72.86A7.63,7.63,0,0,1,21.5,25a7.54,7.54,0,0,1-1.17-.21.94.94,0,0,1-.71-.86l-.16-2.2-.15-2a1.53,1.53,0,0,0-.29-.85S8.12,3.82,8.06,3.76C4.61-.68,3.35,0,3.35,0c-.78.26-1.47,1.4-2,2.76A17.52,17.52,0,0,0,0,9.54a18,18,0,0,0,.22,2.84A27.67,27.67,0,0,0,2.57,20a45.79,45.79,0,0,0,2.59,5.12c.9,1.45,4.41,6,4.41,6a2.24,2.24,0,0,1,.16,1.8L8.11,37a32.45,32.45,0,0,0-1.43,5.44c-.43,2-.74,6.59-.74,6.59a1.07,1.07,0,0,0,0,.47,10.82,10.82,0,0,0,3.34,3.12A27.76,27.76,0,0,0,20.87,56l.63,0c.15,0,.56,0,.63,0a27.76,27.76,0,0,0,11.54-3.38A10.78,10.78,0,0,0,37,49.48a.89.89,0,0,0,.06-.46s-.32-4.62-.75-6.6A31.63,31.63,0,0,0,34.89,37l-1.61-4.08a2.13,2.13,0,0,1,.16-1.79s3.5-4.52,4.41-6A46.62,46.62,0,0,0,40.43,20a27.46,27.46,0,0,0,2.35-7.63A18,18,0,0,0,43,9.54,17.52,17.52,0,0,0,41.68,2.8Z" style="fill:#d90a2c"></path></svg> 