<?xml version="1.0" encoding="UTF-8"?> <svg xmlns="http://www.w3.org/2000/svg" viewBox="0 0 42.92 56.04"><defs><style>.cls-1{fill:#161519;}</style></defs><g id="Слой_2" data-name="Слой 2"><g id="Слой_1-2" data-name="Слой 1"><path class="cls-1" d="M41.7,2.84c-.6-1.4-1.2-2.5-2-2.8,0,0-1.2-.7-4.7,3.7L24,18.94a1.22,1.22,0,0,0-.3.9l-.1,2L23.4,24a1.07,1.07,0,0,1-.7.9,4.87,4.87,0,0,1-1.2.1,5,5,0,0,1-1.2-.2.88.88,0,0,1-.7-.9l-.2-2.2-.1-2a1.61,1.61,0,0,0-.3-.9S8.1,3.74,8,3.74C4.6-.66,3.3,0,3.3,0c-.8.3-1.5,1.4-2,2.8A19,19,0,0,0,0,9.54a24.58,24.58,0,0,0,.2,2.8A25.58,25.58,0,0,0,2.6,20a40.65,40.65,0,0,0,2.6,5.1c.9,1.5,4.4,6,4.4,6a2.29,2.29,0,0,1,.2,1.8L8.1,37a35.77,35.77,0,0,0-1.4,5.4C6.3,44.44,6,49,6,49v.5a10.82,10.82,0,0,0,3.3,3.1A27.82,27.82,0,0,0,20.9,56h1.2a27.38,27.38,0,0,0,11.5-3.4,10.9,10.9,0,0,0,3.3-3.1A.75.75,0,0,0,37,49a54.6,54.6,0,0,0-.8-6.6A32.94,32.94,0,0,0,34.8,37l-1.6-4.1a1.94,1.94,0,0,1,.2-1.8s3.5-4.5,4.4-6c1-1.7,1.8-3.4,2.6-5.1a25.67,25.67,0,0,0,2.3-7.6,26.35,26.35,0,0,0,.2-2.8A15.52,15.52,0,0,0,41.7,2.84Z"></path></g></g></svg> 